<svg width="376" height="651" viewBox="0 0 376 651" fill="none" xmlns="http://www.w3.org/2000/svg">
<path d="M0 651L0 0H376L376 651H0Z" fill="#303B42"/>
<path d="M95.2201 190.076C93.0839 190.076 91.4685 189.475 90.3737 188.274C89.2789 187.045 88.7315 185.296 88.7315 183.027V181.425H92.897V183.347C92.897 185.163 93.658 186.071 95.18 186.071C95.9277 186.071 96.4884 185.857 96.8623 185.43C97.2628 184.976 97.4631 184.255 97.4631 183.267C97.4631 182.092 97.196 181.064 96.662 180.183C96.128 179.275 95.14 178.194 93.6981 176.939C91.8823 175.337 90.614 173.895 89.893 172.613C89.1721 171.305 88.8116 169.836 88.8116 168.207C88.8116 165.991 89.3724 164.282 90.4938 163.08C91.6153 161.852 93.2441 161.238 95.3803 161.238C97.4898 161.238 99.0785 161.852 100.147 163.08C101.241 164.282 101.789 166.018 101.789 168.287V169.449H97.6233V168.007C97.6233 167.046 97.4364 166.351 97.0625 165.924C96.6887 165.47 96.1413 165.243 95.4204 165.243C93.9517 165.243 93.2174 166.138 93.2174 167.927C93.2174 168.941 93.4845 169.889 94.0185 170.771C94.5792 171.652 95.5806 172.72 97.0225 173.975C98.8649 175.577 100.133 177.032 100.828 178.341C101.522 179.649 101.869 181.184 101.869 182.947C101.869 185.243 101.295 187.005 100.147 188.234C99.0251 189.462 97.383 190.076 95.2201 190.076ZM108.24 165.644H103.634V161.638H117.252V165.644H112.646V189.676H108.24V165.644ZM119.786 161.638H126.314C128.584 161.638 130.24 162.172 131.281 163.241C132.322 164.282 132.843 165.897 132.843 168.087V169.809C132.843 172.72 131.882 174.562 129.959 175.337V175.417C131.027 175.737 131.775 176.391 132.202 177.379C132.656 178.367 132.883 179.689 132.883 181.345V186.271C132.883 187.072 132.91 187.726 132.963 188.234C133.017 188.714 133.15 189.195 133.364 189.676H128.878C128.718 189.222 128.611 188.794 128.557 188.394C128.504 187.993 128.477 187.272 128.477 186.231V181.104C128.477 179.823 128.264 178.928 127.836 178.421C127.436 177.913 126.728 177.66 125.714 177.66H124.192V189.676H119.786V161.638ZM125.794 173.654C126.675 173.654 127.329 173.427 127.756 172.973C128.21 172.52 128.437 171.759 128.437 170.69V168.528C128.437 167.513 128.25 166.779 127.876 166.325C127.529 165.871 126.969 165.644 126.194 165.644H124.192V173.654H125.794ZM142.709 190.076C140.546 190.076 138.89 189.462 137.742 188.234C136.594 187.005 136.02 185.27 136.02 183.027V168.287C136.02 166.044 136.594 164.309 137.742 163.08C138.89 161.852 140.546 161.238 142.709 161.238C144.872 161.238 146.527 161.852 147.675 163.08C148.824 164.309 149.398 166.044 149.398 168.287V183.027C149.398 185.27 148.824 187.005 147.675 188.234C146.527 189.462 144.872 190.076 142.709 190.076ZM142.709 186.071C144.231 186.071 144.992 185.15 144.992 183.307V168.007C144.992 166.164 144.231 165.243 142.709 165.243C141.187 165.243 140.426 166.164 140.426 168.007V183.307C140.426 185.15 141.187 186.071 142.709 186.071ZM152.778 161.638H158.305L162.591 178.421H162.671V161.638H166.596V189.676H162.07L156.783 169.208H156.703V189.676H152.778V161.638ZM176.52 190.076C174.383 190.076 172.755 189.475 171.633 188.274C170.512 187.045 169.951 185.296 169.951 183.027V168.287C169.951 166.018 170.512 164.282 171.633 163.08C172.755 161.852 174.383 161.238 176.52 161.238C178.656 161.238 180.284 161.852 181.406 163.08C182.527 164.282 183.088 166.018 183.088 168.287V170.69H178.923V168.007C178.923 166.164 178.162 165.243 176.64 165.243C175.118 165.243 174.357 166.164 174.357 168.007V183.347C174.357 185.163 175.118 186.071 176.64 186.071C178.162 186.071 178.923 185.163 178.923 183.347V177.86H176.72V173.855H183.088V183.027C183.088 185.296 182.527 187.045 181.406 188.274C180.284 189.475 178.656 190.076 176.52 190.076ZM186.317 161.638H197.973V165.644H190.723V173.454H196.411V177.459H190.723V189.676H186.317V161.638ZM202.6 161.638H208.568L213.134 189.676H208.728L207.927 184.108V184.188H202.92L202.119 189.676H198.034L202.6 161.638ZM207.406 180.383L205.444 166.525H205.364L203.441 180.383H207.406ZM221.802 190.076C219.692 190.076 218.077 189.475 216.955 188.274C215.861 187.072 215.313 185.377 215.313 183.187V168.127C215.313 165.937 215.861 164.242 216.955 163.04C218.077 161.839 219.692 161.238 221.802 161.238C223.911 161.238 225.513 161.839 226.608 163.04C227.73 164.242 228.29 165.937 228.29 168.127V171.091H224.125V167.847C224.125 166.111 223.391 165.243 221.922 165.243C220.453 165.243 219.719 166.111 219.719 167.847V183.507C219.719 185.216 220.453 186.071 221.922 186.071C223.391 186.071 224.125 185.216 224.125 183.507V179.222H228.29V183.187C228.29 185.377 227.73 187.072 226.608 188.274C225.513 189.475 223.911 190.076 221.802 190.076ZM237.735 190.076C235.599 190.076 233.97 189.475 232.849 188.274C231.728 187.045 231.167 185.296 231.167 183.027V161.638H235.573V183.347C235.573 184.308 235.76 185.003 236.133 185.43C236.534 185.857 237.095 186.071 237.816 186.071C238.537 186.071 239.084 185.857 239.458 185.43C239.858 185.003 240.059 184.308 240.059 183.347V161.638H244.304V183.027C244.304 185.296 243.743 187.045 242.622 188.274C241.5 189.475 239.872 190.076 237.735 190.076ZM247.843 161.638H252.248V185.67H259.498V189.676H247.843V161.638ZM262.327 165.644H257.721V161.638H271.339V165.644H266.733V189.676H262.327V165.644ZM278.074 177.74L272.747 161.638H277.433L280.437 171.932H280.517L283.521 161.638H287.807L282.48 177.74V189.676H278.074V177.74Z" fill="white"/>
<path d="M148.828 79.0264L188.304 89.1021L227.506 79.0264L222.545 110.094L204.115 135.758H167.257L148.828 110.094V79.0264Z" fill="#F77355"/>
<path d="M203.735 136.424L227.337 78.4902L222.417 109.682L203.735 136.424Z" fill="black" fill-opacity="0.06"/>
<path d="M148.662 77.7747L167.091 135.245L148.662 109.581V77.7747Z" fill="black" fill-opacity="0.06"/>
<path d="M188.762 94.3526C190.644 94.3526 192.465 94.4703 194.223 94.7057C195.995 94.9272 197.58 95.3148 198.979 95.8686C200.391 96.4085 201.547 97.1422 202.446 98.0697C203.36 98.9973 203.893 100.153 204.045 101.538L198.646 103.033C198.646 102.202 198.362 101.524 197.795 100.998C197.241 100.458 196.5 100.036 195.573 99.731C194.659 99.4126 193.607 99.1911 192.416 99.0665C191.24 98.9419 190.021 98.8796 188.762 98.8796C187.53 98.8796 186.318 98.935 185.128 99.0457C183.937 99.1565 182.864 99.3642 181.909 99.6687C180.968 99.9733 180.206 100.396 179.625 100.935C179.043 101.475 178.752 102.174 178.752 103.033V107.975H204.045V118.732C204.045 119.659 203.838 120.49 203.422 121.224C203.021 121.944 202.46 122.574 201.74 123.114C201.034 123.64 200.19 124.09 199.207 124.463C198.238 124.823 197.186 125.114 196.051 125.335C194.929 125.557 193.746 125.716 192.5 125.813C191.254 125.91 190.008 125.958 188.762 125.958C187.488 125.958 186.235 125.91 185.003 125.813C183.771 125.716 182.601 125.557 181.494 125.335C180.386 125.114 179.355 124.823 178.399 124.463C177.458 124.09 176.627 123.64 175.908 123.114C175.188 122.574 174.606 121.944 174.163 121.224C173.72 120.504 173.45 119.673 173.353 118.732L178.752 117.237C178.752 118.095 179.043 118.794 179.625 119.334C180.206 119.874 180.968 120.296 181.909 120.601C182.864 120.905 183.937 121.113 185.128 121.224C186.318 121.335 187.53 121.39 188.762 121.39C190.021 121.39 191.24 121.335 192.416 121.224C193.607 121.099 194.659 120.885 195.573 120.58C196.5 120.262 197.241 119.833 197.795 119.293C198.362 118.753 198.646 118.067 198.646 117.237V112.17H173.353V101.538C173.353 100.61 173.554 99.7933 173.956 99.0873C174.371 98.3674 174.932 97.7444 175.638 97.2183C176.357 96.6784 177.209 96.2285 178.192 95.8686C179.175 95.4948 180.234 95.1971 181.369 94.9756C182.518 94.7541 183.716 94.5949 184.962 94.498C186.221 94.4011 187.488 94.3526 188.762 94.3526Z" fill="white"/>
</svg>
