<svg width="56" height="42" viewBox="0 0 56 42" fill="none" xmlns="http://www.w3.org/2000/svg">
<path d="M0.116211 1.41647L27.7129 8.46016L55.1181 1.41647L51.6495 23.1349L38.7662 41.0761H12.9995L0.116211 23.1349V1.41647Z" fill="#F77355"/>
<path d="M38.5 41.5416L54.9998 1.04166L51.56 22.8471L38.5 41.5416Z" fill="black" fill-opacity="0.06"/>
<path d="M0 0.541626L12.8833 40.718L0 22.7767V0.541626Z" fill="black" fill-opacity="0.06"/>
<path d="M28.0327 11.8761C29.3489 11.8761 30.6216 11.9584 31.8507 12.1229C33.0894 12.2778 34.1976 12.5488 35.175 12.9359C36.1622 13.3133 36.9703 13.8263 37.5994 14.4747C38.2381 15.1231 38.6107 15.9312 38.7172 16.899L34.9428 17.9442C34.9428 17.3636 34.7444 16.8893 34.3476 16.5216C33.9605 16.1441 33.4427 15.849 32.7943 15.636C32.1555 15.4134 31.42 15.2586 30.5877 15.1715C29.7651 15.0844 28.9134 15.0408 28.0327 15.0408C27.1714 15.0408 26.3245 15.0796 25.4922 15.157C24.6599 15.2344 23.9099 15.3796 23.2421 15.5925C22.584 15.8054 22.0517 16.1006 21.6452 16.478C21.2388 16.8555 21.0355 17.3442 21.0355 17.9442V21.3993H38.7172V28.9191C38.7172 29.5675 38.572 30.1482 38.2817 30.6611C38.001 31.1644 37.6091 31.6047 37.1058 31.9821C36.6122 32.3499 36.0219 32.6644 35.3347 32.9257C34.6573 33.1774 33.9218 33.3806 33.1282 33.5355C32.3442 33.6903 31.5168 33.8016 30.6458 33.8693C29.7747 33.9371 28.9037 33.971 28.0327 33.971C27.1423 33.971 26.2665 33.9371 25.4051 33.8693C24.5438 33.8016 23.726 33.6903 22.9518 33.5355C22.1775 33.3806 21.4565 33.1774 20.7887 32.9257C20.1306 32.6644 19.55 32.3499 19.0467 31.9821C18.5434 31.6047 18.137 31.1644 17.8273 30.6611C17.5176 30.1578 17.3289 29.5772 17.2611 28.9191L21.0355 27.8738C21.0355 28.4739 21.2388 28.9626 21.6452 29.3401C22.0517 29.7175 22.584 30.0127 23.2421 30.2256C23.9099 30.4385 24.6599 30.5837 25.4922 30.6611C26.3245 30.7385 27.1714 30.7772 28.0327 30.7772C28.9134 30.7772 29.7651 30.7385 30.5877 30.6611C31.42 30.574 32.1555 30.424 32.7943 30.2111C33.4427 29.9885 33.9605 29.6885 34.3476 29.311C34.7444 28.9336 34.9428 28.4545 34.9428 27.8738V24.3317H17.2611V16.899C17.2611 16.2506 17.4014 15.6796 17.6821 15.186C17.9724 14.6828 18.3644 14.2473 18.858 13.8795C19.3612 13.502 19.9564 13.1875 20.6436 12.9359C21.3307 12.6746 22.0711 12.4665 22.8647 12.3117C23.6679 12.1568 24.5051 12.0455 25.3761 11.9778C26.2568 11.91 27.1423 11.8761 28.0327 11.8761Z" fill="white"/>
</svg>
