<svg width="636" height="555" viewBox="0 0 636 555" fill="none" xmlns="http://www.w3.org/2000/svg">
<path d="M104 354H431L557 379L635.5 531.5L396.5 554.5L0 531.5V407L104 354Z" fill="#C4C4C4"/>
<path d="M64.0781 74.1282L320.428 139.558L575 74.1282L542.78 275.874L423.104 442.534H183.754L64.0781 275.874V74.1282Z" fill="#F77355"/>
<path d="M420.632 446.859L573.902 70.6472L541.949 273.201L420.632 446.859Z" fill="black" fill-opacity="0.06"/>
<path d="M63 66L182.675 439.205L63 272.545V66Z" fill="black" fill-opacity="0.06"/>
<path d="M323.401 173.655C335.627 173.655 347.449 174.419 358.867 175.948C370.374 177.386 380.667 179.903 389.747 183.499C398.917 187.005 406.424 191.77 412.267 197.794C418.201 203.817 421.662 211.324 422.651 220.314L387.59 230.023C387.59 224.629 385.747 220.224 382.061 216.807C378.465 213.301 373.655 210.559 367.632 208.582C361.699 206.514 354.866 205.075 347.135 204.266C339.493 203.457 331.582 203.053 323.401 203.053C315.4 203.053 307.534 203.412 299.802 204.132C292.071 204.851 285.103 206.199 278.9 208.177C272.787 210.155 267.842 212.897 264.067 216.403C260.291 219.909 258.403 224.449 258.403 230.023V262.117H422.651V331.97C422.651 337.993 421.302 343.387 418.605 348.152C415.998 352.827 412.357 356.917 407.683 360.423C403.098 363.84 397.614 366.761 391.231 369.189C384.938 371.526 378.105 373.414 370.734 374.852C363.452 376.291 355.765 377.325 347.674 377.954C339.583 378.583 331.492 378.898 323.401 378.898C315.13 378.898 306.994 378.583 298.993 377.954C290.992 377.325 283.395 376.291 276.203 374.852C269.011 373.414 262.314 371.526 256.11 369.189C249.997 366.761 244.603 363.84 239.928 360.423C235.254 356.917 231.478 352.827 228.601 348.152C225.724 343.477 223.971 338.083 223.342 331.97L258.403 322.261C258.403 327.834 260.291 332.374 264.067 335.881C267.842 339.387 272.787 342.129 278.9 344.106C285.103 346.084 292.071 347.433 299.802 348.152C307.534 348.871 315.4 349.231 323.401 349.231C331.582 349.231 339.493 348.871 347.135 348.152C354.866 347.343 361.699 345.949 367.632 343.972C373.655 341.904 378.465 339.117 382.061 335.611C385.747 332.105 387.59 327.655 387.59 322.261V289.357H223.342V220.314C223.342 214.29 224.645 208.986 227.252 204.401C229.949 199.726 233.59 195.681 238.175 192.265C242.85 188.759 248.379 185.837 254.762 183.499C261.145 181.072 268.022 179.139 275.394 177.701C282.856 176.262 290.632 175.229 298.723 174.599C306.904 173.97 315.13 173.655 323.401 173.655Z" fill="white"/>
</svg>
