<svg width="216" height="119" viewBox="0 0 216 119" fill="none" xmlns="http://www.w3.org/2000/svg">
<path d="M15.2201 113.076C13.0839 113.076 11.4685 112.475 10.3737 111.274C9.2789 110.045 8.73151 108.296 8.73151 106.027V104.425H12.897V106.347C12.897 108.163 13.658 109.071 15.18 109.071C15.9277 109.071 16.4884 108.857 16.8623 108.43C17.2628 107.976 17.4631 107.255 17.4631 106.267C17.4631 105.092 17.196 104.064 16.662 103.183C16.128 102.275 15.14 101.194 13.6981 99.9387C11.8823 98.3366 10.614 96.8947 9.89304 95.613C9.17209 94.3046 8.81161 92.836 8.81161 91.2071C8.81161 88.9909 9.37235 87.2819 10.4938 86.0804C11.6153 84.8521 13.2441 84.2379 15.3803 84.2379C17.4898 84.2379 19.0785 84.8521 20.1466 86.0804C21.2414 87.2819 21.7888 89.0176 21.7888 91.2872V92.4488H17.6233V91.0069C17.6233 90.0456 17.4364 89.3514 17.0625 88.9241C16.6887 88.4702 16.1413 88.2432 15.4204 88.2432C13.9517 88.2432 13.2174 89.1377 13.2174 90.9268C13.2174 91.9414 13.4845 92.8894 14.0185 93.7705C14.5792 94.6517 15.5806 95.7198 17.0225 96.9748C18.8649 98.5769 20.1333 100.032 20.8275 101.341C21.5218 102.649 21.8689 104.184 21.8689 105.947C21.8689 108.243 21.2948 110.005 20.1466 111.234C19.0251 112.462 17.383 113.076 15.2201 113.076ZM28.2401 88.6437H23.634V84.6385H37.252V88.6437H32.646V112.676H28.2401V88.6437ZM39.7857 84.6385H46.3143C48.584 84.6385 50.2395 85.1725 51.2809 86.2406C52.3223 87.2819 52.843 88.8974 52.843 91.087V92.8093C52.843 95.7198 51.8817 97.5622 49.9592 98.3366V98.4167C51.0272 98.7371 51.7749 99.3913 52.2021 100.379C52.6561 101.367 52.883 102.689 52.883 104.345V109.271C52.883 110.072 52.9097 110.726 52.9631 111.234C53.0165 111.714 53.1501 112.195 53.3637 112.676H48.8777C48.7175 112.222 48.6107 111.794 48.5573 111.394C48.5039 110.993 48.4772 110.272 48.4772 109.231V104.104C48.4772 102.823 48.2636 101.928 47.8364 101.421C47.4358 100.913 46.7282 100.66 45.7135 100.66H44.1915V112.676H39.7857V84.6385ZM45.7937 96.6543C46.6748 96.6543 47.329 96.4274 47.7563 95.9734C48.2102 95.5195 48.4372 94.7585 48.4372 93.6904V91.5276C48.4372 90.5129 48.2502 89.7786 47.8764 89.3247C47.5293 88.8707 46.9685 88.6437 46.1942 88.6437H44.1915V96.6543H45.7937ZM62.7088 113.076C60.546 113.076 58.8905 112.462 57.7423 111.234C56.5941 110.005 56.02 108.27 56.02 106.027V91.2872C56.02 89.0443 56.5941 87.3086 57.7423 86.0804C58.8905 84.8521 60.546 84.2379 62.7088 84.2379C64.8717 84.2379 66.5272 84.8521 67.6754 86.0804C68.8236 87.3086 69.3977 89.0443 69.3977 91.2872V106.027C69.3977 108.27 68.8236 110.005 67.6754 111.234C66.5272 112.462 64.8717 113.076 62.7088 113.076ZM62.7088 109.071C64.2309 109.071 64.9919 108.15 64.9919 106.307V91.0069C64.9919 89.1644 64.2309 88.2432 62.7088 88.2432C61.1868 88.2432 60.4258 89.1644 60.4258 91.0069V106.307C60.4258 108.15 61.1868 109.071 62.7088 109.071ZM72.7778 84.6385H78.3051L82.5908 101.421H82.6709V84.6385H86.5961V112.676H82.0701L76.7831 92.2085H76.703V112.676H72.7778V84.6385ZM96.5195 113.076C94.3833 113.076 92.7545 112.475 91.633 111.274C90.5116 110.045 89.9508 108.296 89.9508 106.027V91.2872C89.9508 89.0176 90.5116 87.2819 91.633 86.0804C92.7545 84.8521 94.3833 84.2379 96.5195 84.2379C98.6557 84.2379 100.284 84.8521 101.406 86.0804C102.527 87.2819 103.088 89.0176 103.088 91.2872V93.6904H98.9227V91.0069C98.9227 89.1644 98.1617 88.2432 96.6397 88.2432C95.1176 88.2432 94.3566 89.1644 94.3566 91.0069V106.347C94.3566 108.163 95.1176 109.071 96.6397 109.071C98.1617 109.071 98.9227 108.163 98.9227 106.347V100.86H96.7198V96.8546H103.088V106.027C103.088 108.296 102.527 110.045 101.406 111.274C100.284 112.475 98.6557 113.076 96.5195 113.076ZM106.317 84.6385H117.973V88.6437H110.723V96.4541H116.411V100.459H110.723V112.676H106.317V84.6385ZM122.6 84.6385H128.568L133.134 112.676H128.728L127.927 107.108V107.188H122.92L122.119 112.676H118.034L122.6 84.6385ZM127.406 103.383L125.444 89.5249H125.364L123.441 103.383H127.406ZM141.802 113.076C139.692 113.076 138.077 112.475 136.955 111.274C135.861 110.072 135.313 108.377 135.313 106.187V91.127C135.313 88.9375 135.861 87.2419 136.955 86.0403C138.077 84.8387 139.692 84.2379 141.802 84.2379C143.911 84.2379 145.513 84.8387 146.608 86.0403C147.73 87.2419 148.29 88.9375 148.29 91.127V94.091H144.125V90.8467C144.125 89.111 143.391 88.2432 141.922 88.2432C140.453 88.2432 139.719 89.111 139.719 90.8467V106.507C139.719 108.216 140.453 109.071 141.922 109.071C143.391 109.071 144.125 108.216 144.125 106.507V102.222H148.29V106.187C148.29 108.377 147.73 110.072 146.608 111.274C145.513 112.475 143.911 113.076 141.802 113.076ZM157.735 113.076C155.599 113.076 153.97 112.475 152.849 111.274C151.728 110.045 151.167 108.296 151.167 106.027V84.6385H155.573V106.347C155.573 107.308 155.76 108.003 156.133 108.43C156.534 108.857 157.095 109.071 157.816 109.071C158.537 109.071 159.084 108.857 159.458 108.43C159.858 108.003 160.059 107.308 160.059 106.347V84.6385H164.304V106.027C164.304 108.296 163.743 110.045 162.622 111.274C161.5 112.475 159.872 113.076 157.735 113.076ZM167.843 84.6385H172.248V108.67H179.498V112.676H167.843V84.6385ZM182.327 88.6437H177.721V84.6385H191.339V88.6437H186.733V112.676H182.327V88.6437ZM198.074 100.74L192.747 84.6385H197.433L200.437 94.9321H200.517L203.521 84.6385H207.807L202.48 100.74V112.676H198.074V100.74Z" fill="#0E1F2E"/>
<path d="M68.8281 2.02637L108.304 12.1021L147.506 2.02637L142.545 33.0937L124.115 58.7581H87.2572L68.8281 33.0937V2.02637Z" fill="#F77355"/>
<path d="M123.735 59.424L147.337 1.49023L142.417 32.6821L123.735 59.424Z" fill="black" fill-opacity="0.06"/>
<path d="M68.6621 0.774658L87.0912 58.2454L68.6621 32.5811V0.774658Z" fill="black" fill-opacity="0.06"/>
<path d="M108.762 17.3526C110.644 17.3526 112.465 17.4703 114.223 17.7057C115.995 17.9272 117.58 18.3148 118.979 18.8686C120.391 19.4085 121.547 20.1422 122.446 21.0697C123.36 21.9973 123.893 23.1533 124.045 24.5377L118.646 26.0328C118.646 25.2022 118.362 24.5238 117.795 23.9978C117.241 23.4578 116.5 23.0356 115.573 22.731C114.659 22.4126 113.607 22.1911 112.416 22.0665C111.24 21.9419 110.021 21.8796 108.762 21.8796C107.53 21.8796 106.318 21.935 105.128 22.0457C103.937 22.1565 102.864 22.3642 101.909 22.6687C100.968 22.9733 100.206 23.3955 99.6246 23.9355C99.0432 24.4754 98.7525 25.1745 98.7525 26.0328V30.9751H124.045V41.7319C124.045 42.6595 123.838 43.4901 123.422 44.2238C123.021 44.9437 122.46 45.5736 121.74 46.1135C121.034 46.6396 120.19 47.0895 119.207 47.4633C118.238 47.8233 117.186 48.114 116.051 48.3355C114.929 48.557 113.746 48.7162 112.5 48.8131C111.254 48.91 110.008 48.9585 108.762 48.9585C107.488 48.9585 106.235 48.91 105.003 48.8131C103.771 48.7162 102.601 48.557 101.494 48.3355C100.386 48.114 99.3547 47.8233 98.3994 47.4633C97.4581 47.0895 96.6274 46.6396 95.9075 46.1135C95.1876 45.5736 94.6062 44.9437 94.1632 44.2238C93.7202 43.5039 93.4502 42.6733 93.3533 41.7319L98.7525 40.2368C98.7525 41.0951 99.0432 41.7942 99.6246 42.3341C100.206 42.874 100.968 43.2963 101.909 43.6008C102.864 43.9054 103.937 44.1131 105.128 44.2238C106.318 44.3346 107.53 44.39 108.762 44.39C110.021 44.39 111.24 44.3346 112.416 44.2238C113.607 44.0992 114.659 43.8846 115.573 43.5801C116.5 43.2617 117.241 42.8325 117.795 42.2926C118.362 41.7527 118.646 41.0674 118.646 40.2368V35.1699H93.3533V24.5377C93.3533 23.6101 93.5541 22.7933 93.9555 22.0873C94.3708 21.3674 94.9315 20.7444 95.6376 20.2183C96.3575 19.6784 97.2089 19.2285 98.1918 18.8686C99.1747 18.4948 100.234 18.1971 101.369 17.9756C102.518 17.7541 103.716 17.5949 104.962 17.498C106.221 17.4011 107.488 17.3526 108.762 17.3526Z" fill="white"/>
</svg>
