<svg width="151" height="77" viewBox="0 0 151 77" fill="none" xmlns="http://www.w3.org/2000/svg">
<path d="M10.64 73.28C9.14664 73.28 8.0173 72.86 7.25197 72.02C6.48664 71.1613 6.10397 69.9387 6.10397 68.352V67.232H9.01597V68.576C9.01597 69.8453 9.54797 70.48 10.612 70.48C11.1346 70.48 11.5266 70.3307 11.788 70.032C12.068 69.7147 12.208 69.2107 12.208 68.52C12.208 67.6987 12.0213 66.98 11.648 66.364C11.2746 65.7293 10.584 64.9733 9.57597 64.096C8.30664 62.976 7.41997 61.968 6.91597 61.072C6.41197 60.1573 6.15997 59.1307 6.15997 57.992C6.15997 56.4427 6.55197 55.248 7.33597 54.408C8.11997 53.5493 9.25864 53.12 10.752 53.12C12.2266 53.12 13.3373 53.5493 14.084 54.408C14.8493 55.248 15.232 56.4613 15.232 58.048V58.86H12.32V57.852C12.32 57.18 12.1893 56.6947 11.928 56.396C11.6666 56.0787 11.284 55.92 10.78 55.92C9.7533 55.92 9.23997 56.5453 9.23997 57.796C9.23997 58.5053 9.42664 59.168 9.79997 59.784C10.192 60.4 10.892 61.1467 11.9 62.024C13.188 63.144 14.0746 64.1613 14.56 65.076C15.0453 65.9907 15.288 67.064 15.288 68.296C15.288 69.9013 14.8866 71.1333 14.084 71.992C13.3 72.8507 12.152 73.28 10.64 73.28ZM19.7419 56.2H16.5219V53.4H26.0419V56.2H22.8219V73H19.7419V56.2ZM27.8132 53.4H32.3772C33.9638 53.4 35.1212 53.7733 35.8492 54.52C36.5772 55.248 36.9412 56.3773 36.9412 57.908V59.112C36.9412 61.1467 36.2692 62.4347 34.9252 62.976V63.032C35.6718 63.256 36.1945 63.7133 36.4932 64.404C36.8105 65.0947 36.9692 66.0187 36.9692 67.176V70.62C36.9692 71.18 36.9878 71.6373 37.0252 71.992C37.0625 72.328 37.1558 72.664 37.3052 73H34.1692C34.0572 72.6827 33.9825 72.384 33.9452 72.104C33.9078 71.824 33.8892 71.32 33.8892 70.592V67.008C33.8892 66.112 33.7398 65.4867 33.4412 65.132C33.1612 64.7773 32.6665 64.6 31.9572 64.6H30.8932V73H27.8132V53.4ZM32.0132 61.8C32.6292 61.8 33.0865 61.6413 33.3852 61.324C33.7025 61.0067 33.8612 60.4747 33.8612 59.728V58.216C33.8612 57.5067 33.7305 56.9933 33.4692 56.676C33.2265 56.3587 32.8345 56.2 32.2932 56.2H30.8932V61.8H32.0132ZM43.8381 73.28C42.3261 73.28 41.1688 72.8507 40.3661 71.992C39.5635 71.1333 39.1621 69.92 39.1621 68.352V58.048C39.1621 56.48 39.5635 55.2667 40.3661 54.408C41.1688 53.5493 42.3261 53.12 43.8381 53.12C45.3501 53.12 46.5075 53.5493 47.3101 54.408C48.1128 55.2667 48.5141 56.48 48.5141 58.048V68.352C48.5141 69.92 48.1128 71.1333 47.3101 71.992C46.5075 72.8507 45.3501 73.28 43.8381 73.28ZM43.8381 70.48C44.9021 70.48 45.4341 69.836 45.4341 68.548V57.852C45.4341 56.564 44.9021 55.92 43.8381 55.92C42.7741 55.92 42.2421 56.564 42.2421 57.852V68.548C42.2421 69.836 42.7741 70.48 43.8381 70.48ZM50.8771 53.4H54.7411L57.7371 65.132H57.7931V53.4H60.5371V73H57.3731L53.6771 58.692H53.6211V73H50.8771V53.4ZM67.4743 73.28C65.9809 73.28 64.8423 72.86 64.0583 72.02C63.2743 71.1613 62.8823 69.9387 62.8823 68.352V58.048C62.8823 56.4613 63.2743 55.248 64.0583 54.408C64.8423 53.5493 65.9809 53.12 67.4743 53.12C68.9676 53.12 70.1063 53.5493 70.8903 54.408C71.6743 55.248 72.0663 56.4613 72.0663 58.048V59.728H69.1543V57.852C69.1543 56.564 68.6223 55.92 67.5583 55.92C66.4943 55.92 65.9623 56.564 65.9623 57.852V68.576C65.9623 69.8453 66.4943 70.48 67.5583 70.48C68.6223 70.48 69.1543 69.8453 69.1543 68.576V64.74H67.6143V61.94H72.0663V68.352C72.0663 69.9387 71.6743 71.1613 70.8903 72.02C70.1063 72.86 68.9676 73.28 67.4743 73.28ZM74.3238 53.4H82.4718V56.2H77.4038V61.66H81.3798V64.46H77.4038V73H74.3238V53.4ZM85.7064 53.4H89.8784L93.0704 73H89.9904L89.4304 69.108V69.164H85.9304L85.3704 73H82.5144L85.7064 53.4ZM89.0664 66.504L87.6944 56.816H87.6384L86.2944 66.504H89.0664ZM99.13 73.28C97.6554 73.28 96.526 72.86 95.742 72.02C94.9767 71.18 94.594 69.9947 94.594 68.464V57.936C94.594 56.4053 94.9767 55.22 95.742 54.38C96.526 53.54 97.6554 53.12 99.13 53.12C100.605 53.12 101.725 53.54 102.49 54.38C103.274 55.22 103.666 56.4053 103.666 57.936V60.008H100.754V57.74C100.754 56.5267 100.241 55.92 99.214 55.92C98.1874 55.92 97.674 56.5267 97.674 57.74V68.688C97.674 69.8827 98.1874 70.48 99.214 70.48C100.241 70.48 100.754 69.8827 100.754 68.688V65.692H103.666V68.464C103.666 69.9947 103.274 71.18 102.49 72.02C101.725 72.86 100.605 73.28 99.13 73.28ZM110.269 73.28C108.775 73.28 107.637 72.86 106.853 72.02C106.069 71.1613 105.677 69.9387 105.677 68.352V53.4H108.757V68.576C108.757 69.248 108.887 69.7333 109.149 70.032C109.429 70.3307 109.821 70.48 110.325 70.48C110.829 70.48 111.211 70.3307 111.473 70.032C111.753 69.7333 111.893 69.248 111.893 68.576V53.4H114.861V68.352C114.861 69.9387 114.469 71.1613 113.685 72.02C112.901 72.86 111.762 73.28 110.269 73.28ZM117.334 53.4H120.414V70.2H125.482V73H117.334V53.4ZM127.46 56.2H124.24V53.4H133.76V56.2H130.54V73H127.46V56.2ZM138.468 64.656L134.744 53.4H138.02L140.12 60.596H140.176L142.276 53.4H145.272L141.548 64.656V73H138.468V64.656Z" fill="#FCFCFC"/>
<path d="M48.1162 1.4165L75.7129 8.46019L103.118 1.4165L99.6495 23.1349L86.7662 41.0762H60.9995L48.1162 23.1349V1.4165Z" fill="#F77355"/>
<path d="M86.5 41.5416L103 1.04163L99.56 22.847L86.5 41.5416Z" fill="black" fill-opacity="0.06"/>
<path d="M48 0.541626L60.8833 40.718L48 22.7767V0.541626Z" fill="black" fill-opacity="0.06"/>
<path d="M76.0327 11.8761C77.3489 11.8761 78.6216 11.9584 79.8507 12.1229C81.0894 12.2778 82.1976 12.5488 83.175 12.9359C84.1622 13.3133 84.9703 13.8263 85.5994 14.4747C86.2381 15.1231 86.6107 15.9312 86.7172 16.899L82.9428 17.9442C82.9428 17.3636 82.7444 16.8893 82.3476 16.5216C81.9605 16.1441 81.4427 15.849 80.7943 15.636C80.1555 15.4134 79.42 15.2586 78.5877 15.1715C77.7651 15.0844 76.9134 15.0408 76.0327 15.0408C75.1714 15.0408 74.3245 15.0796 73.4922 15.157C72.6599 15.2344 71.9099 15.3796 71.2421 15.5925C70.584 15.8054 70.0517 16.1006 69.6452 16.478C69.2388 16.8555 69.0355 17.3442 69.0355 17.9442V21.3993H86.7172V28.9191C86.7172 29.5675 86.572 30.1482 86.2817 30.6611C86.001 31.1644 85.6091 31.6047 85.1058 31.9821C84.6122 32.3499 84.0219 32.6644 83.3347 32.9257C82.6573 33.1774 81.9218 33.3806 81.1282 33.5355C80.3442 33.6903 79.5168 33.8016 78.6458 33.8693C77.7747 33.9371 76.9037 33.971 76.0327 33.971C75.1423 33.971 74.2665 33.9371 73.4051 33.8693C72.5438 33.8016 71.726 33.6903 70.9518 33.5355C70.1775 33.3806 69.4565 33.1774 68.7887 32.9257C68.1306 32.6644 67.55 32.3499 67.0467 31.9821C66.5434 31.6047 66.137 31.1644 65.8273 30.6611C65.5176 30.1578 65.3289 29.5772 65.2611 28.9191L69.0355 27.8738C69.0355 28.4739 69.2388 28.9626 69.6452 29.3401C70.0517 29.7175 70.584 30.0127 71.2421 30.2256C71.9099 30.4385 72.6599 30.5837 73.4922 30.6611C74.3245 30.7385 75.1714 30.7772 76.0327 30.7772C76.9134 30.7772 77.7651 30.7385 78.5877 30.6611C79.42 30.574 80.1555 30.424 80.7943 30.2111C81.4427 29.9885 81.9605 29.6885 82.3476 29.311C82.7444 28.9336 82.9428 28.4545 82.9428 27.8738V24.3317H65.2611V16.899C65.2611 16.2506 65.4014 15.6796 65.6821 15.186C65.9724 14.6828 66.3644 14.2473 66.858 13.8795C67.3612 13.502 67.9564 13.1875 68.6436 12.9359C69.3307 12.6746 70.0711 12.4665 70.8647 12.3117C71.6679 12.1568 72.5051 12.0455 73.3761 11.9778C74.2568 11.91 75.1423 11.8761 76.0327 11.8761Z" fill="white"/>
</svg>
